<svg width="361" height="361" viewBox="0 0 361 361" fill="none" xmlns="http://www.w3.org/2000/svg">
<path d="M361 180.5C361 156.796 356.331 133.325 347.26 111.426C338.189 89.5264 324.894 69.6282 308.133 52.8672C291.372 36.1062 271.474 22.8107 249.574 13.7397C227.675 4.66877 204.204 -1.03612e-06 180.5 0C156.796 1.03612e-06 133.325 4.66877 111.426 13.7397C89.5264 22.8107 69.6282 36.1063 52.8672 52.8672C36.1062 69.6282 22.8107 89.5264 13.7397 111.426C4.66877 133.325 -2.07223e-06 156.796 0 180.5L31.2291 180.5C31.2291 160.897 35.0901 141.487 42.5917 123.377C50.0933 105.266 61.0885 88.8106 74.9495 74.9496C88.8106 61.0885 105.266 50.0933 123.377 42.5917C141.487 35.0901 160.897 31.2291 180.5 31.2291C200.103 31.2291 219.513 35.0901 237.623 42.5917C255.734 50.0933 272.189 61.0885 286.05 74.9496C299.912 88.8106 310.907 105.266 318.408 123.377C325.91 141.487 329.771 160.897 329.771 180.5H361Z" fill="#F857A6" fill-opacity="0.23"/>
<path d="M308.133 52.8672C282.889 27.6238 250.727 10.4329 215.714 3.46825C180.7 -3.49638 144.408 0.0781319 111.426 13.7398C78.4436 27.4014 50.2533 50.5365 30.4197 80.2196C10.5861 109.903 -5.39048e-06 144.8 0 180.5L31.2291 180.5C31.2291 150.977 39.9837 122.117 56.3858 97.5696C72.7879 73.0221 96.1008 53.8897 123.376 42.5917C150.652 31.2937 180.666 28.3377 209.621 34.0973C238.577 39.857 265.175 54.0736 286.05 74.9495L308.133 52.8672Z" fill="#F857A6"/>
</svg>
